<mxfile host="app.diagrams.net" modified="2022-06-22T09:45:06.901Z" agent="5.0 (Macintosh; Intel Mac OS X 10_15_7) AppleWebKit/537.36 (KHTML, like Gecko) Chrome/102.0.0.0 Safari/537.36" etag="ArGU2EvYIbKjGHM2VsTo" version="19.0.2" type="github">
  <diagram id="C5RBs43oDa-KdzZeNtuy" name="Page-1">
    <mxGraphModel dx="940" dy="614" grid="1" gridSize="10" guides="1" tooltips="1" connect="1" arrows="1" fold="1" page="1" pageScale="1" pageWidth="827" pageHeight="1169" math="0" shadow="0">
      <root>
        <mxCell id="WIyWlLk6GJQsqaUBKTNV-0" />
        <mxCell id="WIyWlLk6GJQsqaUBKTNV-1" parent="WIyWlLk6GJQsqaUBKTNV-0" />
        <mxCell id="hNCOztLgwrzikOfnoWvJ-0" value="RoomPushImpl" style="swimlane;fontStyle=1;align=center;verticalAlign=top;childLayout=stackLayout;horizontal=1;startSize=26;horizontalStack=0;resizeParent=1;resizeParentMax=0;resizeLast=0;collapsible=1;marginBottom=0;" vertex="1" parent="WIyWlLk6GJQsqaUBKTNV-1">
          <mxGeometry x="30" y="130" width="340" height="100" as="geometry" />
        </mxCell>
        <mxCell id="hNCOztLgwrzikOfnoWvJ-1" value="+ pipeline_: std::shared_ptr&lt;TRTCRoomPipeline&gt;" style="text;strokeColor=none;fillColor=none;align=left;verticalAlign=top;spacingLeft=4;spacingRight=4;overflow=hidden;rotatable=0;points=[[0,0.5],[1,0.5]];portConstraint=eastwest;" vertex="1" parent="hNCOztLgwrzikOfnoWvJ-0">
          <mxGeometry y="26" width="340" height="26" as="geometry" />
        </mxCell>
        <mxCell id="hNCOztLgwrzikOfnoWvJ-2" value="" style="line;strokeWidth=1;fillColor=none;align=left;verticalAlign=middle;spacingTop=-1;spacingLeft=3;spacingRight=3;rotatable=0;labelPosition=right;points=[];portConstraint=eastwest;" vertex="1" parent="hNCOztLgwrzikOfnoWvJ-0">
          <mxGeometry y="52" width="340" height="8" as="geometry" />
        </mxCell>
        <mxCell id="hNCOztLgwrzikOfnoWvJ-3" value="+ RoomPusherImpl()&#xa;+ int Start(const PushNetworkConfig&amp; config)" style="text;strokeColor=none;fillColor=none;align=left;verticalAlign=top;spacingLeft=4;spacingRight=4;overflow=hidden;rotatable=0;points=[[0,0.5],[1,0.5]];portConstraint=eastwest;" vertex="1" parent="hNCOztLgwrzikOfnoWvJ-0">
          <mxGeometry y="60" width="340" height="40" as="geometry" />
        </mxCell>
        <mxCell id="hNCOztLgwrzikOfnoWvJ-4" value="TRTCRoomPipeline" style="swimlane;fontStyle=1;align=center;verticalAlign=top;childLayout=stackLayout;horizontal=1;startSize=26;horizontalStack=0;resizeParent=1;resizeParentMax=0;resizeLast=0;collapsible=1;marginBottom=0;" vertex="1" parent="WIyWlLk6GJQsqaUBKTNV-1">
          <mxGeometry x="30" y="410" width="320" height="86" as="geometry" />
        </mxCell>
        <mxCell id="hNCOztLgwrzikOfnoWvJ-5" value="+ pipeline_: trtc::Pipeline*" style="text;strokeColor=none;fillColor=none;align=left;verticalAlign=top;spacingLeft=4;spacingRight=4;overflow=hidden;rotatable=0;points=[[0,0.5],[1,0.5]];portConstraint=eastwest;" vertex="1" parent="hNCOztLgwrzikOfnoWvJ-4">
          <mxGeometry y="26" width="320" height="26" as="geometry" />
        </mxCell>
        <mxCell id="hNCOztLgwrzikOfnoWvJ-6" value="" style="line;strokeWidth=1;fillColor=none;align=left;verticalAlign=middle;spacingTop=-1;spacingLeft=3;spacingRight=3;rotatable=0;labelPosition=right;points=[];portConstraint=eastwest;" vertex="1" parent="hNCOztLgwrzikOfnoWvJ-4">
          <mxGeometry y="52" width="320" height="8" as="geometry" />
        </mxCell>
        <mxCell id="hNCOztLgwrzikOfnoWvJ-7" value="+ trtc::Pipeline* GetTrtcPipeline() const;" style="text;strokeColor=none;fillColor=none;align=left;verticalAlign=top;spacingLeft=4;spacingRight=4;overflow=hidden;rotatable=0;points=[[0,0.5],[1,0.5]];portConstraint=eastwest;" vertex="1" parent="hNCOztLgwrzikOfnoWvJ-4">
          <mxGeometry y="60" width="320" height="26" as="geometry" />
        </mxCell>
        <mxCell id="hNCOztLgwrzikOfnoWvJ-8" value="TRTCRoomManager" style="swimlane;fontStyle=1;align=center;verticalAlign=top;childLayout=stackLayout;horizontal=1;startSize=26;horizontalStack=0;resizeParent=1;resizeParentMax=0;resizeLast=0;collapsible=1;marginBottom=0;" vertex="1" parent="WIyWlLk6GJQsqaUBKTNV-1">
          <mxGeometry x="580" y="130" width="510" height="150" as="geometry" />
        </mxCell>
        <mxCell id="hNCOztLgwrzikOfnoWvJ-9" value="+ rooms_:  std::unordered_map&lt;std::string, TRTCRoom*&gt;;" style="text;strokeColor=none;fillColor=none;align=left;verticalAlign=top;spacingLeft=4;spacingRight=4;overflow=hidden;rotatable=0;points=[[0,0.5],[1,0.5]];portConstraint=eastwest;" vertex="1" parent="hNCOztLgwrzikOfnoWvJ-8">
          <mxGeometry y="26" width="510" height="26" as="geometry" />
        </mxCell>
        <mxCell id="hNCOztLgwrzikOfnoWvJ-10" value="" style="line;strokeWidth=1;fillColor=none;align=left;verticalAlign=middle;spacingTop=-1;spacingLeft=3;spacingRight=3;rotatable=0;labelPosition=right;points=[];portConstraint=eastwest;" vertex="1" parent="hNCOztLgwrzikOfnoWvJ-8">
          <mxGeometry y="52" width="510" height="8" as="geometry" />
        </mxCell>
        <mxCell id="hNCOztLgwrzikOfnoWvJ-11" value="+ static TRTCRoomManager* GetInstance();&#xa;+ void RegisterPusher(TRTCRoomClient, TRTCRoomPipeline, std::string room_id);&#xa;+ void UnregisterPusher(TRTCRoomClient,TRTCRoomPipeline, std::string room_id);&#xa;+ void RegisterPlayer(TRTCRoomClient, TRTCRoomPipeline, std::string room_id);&#xa;+ void UnregisterPlayer(TRTCRoomClient,TRTCRoomPipeline, std::string room_id );" style="text;strokeColor=none;fillColor=none;align=left;verticalAlign=top;spacingLeft=4;spacingRight=4;overflow=hidden;rotatable=0;points=[[0,0.5],[1,0.5]];portConstraint=eastwest;" vertex="1" parent="hNCOztLgwrzikOfnoWvJ-8">
          <mxGeometry y="60" width="510" height="90" as="geometry" />
        </mxCell>
        <mxCell id="hNCOztLgwrzikOfnoWvJ-12" value="TRTCRoom" style="swimlane;fontStyle=1;align=center;verticalAlign=top;childLayout=stackLayout;horizontal=1;startSize=26;horizontalStack=0;resizeParent=1;resizeParentMax=0;resizeLast=0;collapsible=1;marginBottom=0;" vertex="1" parent="WIyWlLk6GJQsqaUBKTNV-1">
          <mxGeometry x="640" y="377" width="370" height="208" as="geometry" />
        </mxCell>
        <mxCell id="hNCOztLgwrzikOfnoWvJ-13" value="+ std::string room_id_;&#xa;+ std::shared_ptr&lt;TRTCRoomPipeline&gt; pipeline_;&#xa;+ std::shared_ptr&lt;TRTCRoomClientProxy&gt; client_proxy_;&#xa;+ std::weak_ptr&lt;TRTCRoomClient&gt; pusher_client_;&#xa;+ std::vector&lt;std::weak_ptr&lt;TRTCRoomClient&gt;&gt; player_clients_;" style="text;strokeColor=none;fillColor=none;align=left;verticalAlign=top;spacingLeft=4;spacingRight=4;overflow=hidden;rotatable=0;points=[[0,0.5],[1,0.5]];portConstraint=eastwest;" vertex="1" parent="hNCOztLgwrzikOfnoWvJ-12">
          <mxGeometry y="26" width="370" height="94" as="geometry" />
        </mxCell>
        <mxCell id="hNCOztLgwrzikOfnoWvJ-14" value="" style="line;strokeWidth=1;fillColor=none;align=left;verticalAlign=middle;spacingTop=-1;spacingLeft=3;spacingRight=3;rotatable=0;labelPosition=right;points=[];portConstraint=eastwest;" vertex="1" parent="hNCOztLgwrzikOfnoWvJ-12">
          <mxGeometry y="120" width="370" height="8" as="geometry" />
        </mxCell>
        <mxCell id="hNCOztLgwrzikOfnoWvJ-15" value="+ void RegisterPusher(TRTCRoomClient, TRTCRoomPipeline);&#xa;+ void UnregisterPusher(TRTCRoomClient, TRTCRoomPipeline);&#xa;+ void RegisterPlayer(TRTCRoomClien,TRTCRoomPipeline);&#xa;+ void UnregisterPlayer(TRTCRoomClient,TRTCRoomPipeline);" style="text;strokeColor=none;fillColor=none;align=left;verticalAlign=top;spacingLeft=4;spacingRight=4;overflow=hidden;rotatable=0;points=[[0,0.5],[1,0.5]];portConstraint=eastwest;" vertex="1" parent="hNCOztLgwrzikOfnoWvJ-12">
          <mxGeometry y="128" width="370" height="80" as="geometry" />
        </mxCell>
        <mxCell id="hNCOztLgwrzikOfnoWvJ-16" value="" style="endArrow=open;endSize=12;dashed=1;html=1;rounded=0;exitX=1.002;exitY=0.808;exitDx=0;exitDy=0;exitPerimeter=0;entryX=-0.008;entryY=0.846;entryDx=0;entryDy=0;entryPerimeter=0;" edge="1" parent="WIyWlLk6GJQsqaUBKTNV-1" source="hNCOztLgwrzikOfnoWvJ-1" target="hNCOztLgwrzikOfnoWvJ-9">
          <mxGeometry width="160" relative="1" as="geometry">
            <mxPoint x="320" y="400" as="sourcePoint" />
            <mxPoint x="480" y="400" as="targetPoint" />
          </mxGeometry>
        </mxCell>
        <mxCell id="hNCOztLgwrzikOfnoWvJ-18" value="&lt;span style=&quot;font-family: Helvetica; font-size: 11px; font-style: normal; font-variant-ligatures: normal; font-variant-caps: normal; font-weight: 400; letter-spacing: normal; orphans: 2; text-align: center; text-indent: 0px; text-transform: none; widows: 2; word-spacing: 0px; -webkit-text-stroke-width: 0px; text-decoration-thickness: initial; text-decoration-style: initial; text-decoration-color: initial; float: none; background-color: rgb(255, 255, 255); display: inline !important;&quot;&gt;构造/析构方法中使用&lt;br&gt;&lt;div style=&quot;font-family: Menlo, Monaco, &amp;quot;Courier New&amp;quot;, monospace; font-size: 8px; line-height: 12px;&quot;&gt;RegisterPusher&lt;/div&gt;&lt;div style=&quot;font-family: Menlo, Monaco, &amp;quot;Courier New&amp;quot;, monospace; font-size: 8px; line-height: 12px;&quot;&gt;&lt;div style=&quot;line-height: 12px;&quot;&gt;UnregisterPusher&lt;/div&gt;&lt;/div&gt;&lt;/span&gt;" style="text;whiteSpace=wrap;html=1;" vertex="1" parent="WIyWlLk6GJQsqaUBKTNV-1">
          <mxGeometry x="414" y="130" width="140" height="30" as="geometry" />
        </mxCell>
        <mxCell id="hNCOztLgwrzikOfnoWvJ-19" value="1" style="endArrow=open;html=1;endSize=12;startArrow=diamondThin;startSize=14;startFill=0;edgeStyle=orthogonalEdgeStyle;align=left;verticalAlign=bottom;rounded=0;fontColor=#000000;entryX=0.5;entryY=0;entryDx=0;entryDy=0;exitX=0.48;exitY=1.022;exitDx=0;exitDy=0;exitPerimeter=0;" edge="1" parent="WIyWlLk6GJQsqaUBKTNV-1" source="hNCOztLgwrzikOfnoWvJ-11" target="hNCOztLgwrzikOfnoWvJ-12">
          <mxGeometry x="-1" y="3" relative="1" as="geometry">
            <mxPoint x="680" y="290" as="sourcePoint" />
            <mxPoint x="840" y="290" as="targetPoint" />
            <Array as="points">
              <mxPoint x="825" y="350" />
              <mxPoint x="825" y="350" />
            </Array>
          </mxGeometry>
        </mxCell>
        <mxCell id="hNCOztLgwrzikOfnoWvJ-21" value="管理TRTCRoom：&amp;nbsp; &amp;nbsp; &amp;nbsp; &amp;nbsp; &amp;nbsp; &amp;nbsp; &amp;nbsp; &amp;nbsp; &amp;nbsp; &amp;nbsp; &amp;nbsp; &amp;nbsp; &amp;nbsp; &amp;nbsp; &amp;nbsp; &amp;nbsp; &amp;nbsp; &amp;nbsp; &amp;nbsp; &amp;nbsp; &amp;nbsp; &amp;nbsp; &amp;nbsp; &amp;nbsp; &amp;nbsp;&amp;nbsp;&lt;br&gt;1、&lt;span style=&quot;background-color: rgb(248, 249, 250);&quot;&gt;RegisterPusher：GetOrCreateTRTCRoom&lt;br&gt;2、&lt;/span&gt;&lt;span style=&quot;background-color: rgb(248, 249, 250);&quot;&gt;UnregisterPusher：RemoveRoomIfEmpty&lt;/span&gt;" style="text;html=1;strokeColor=none;fillColor=none;align=left;verticalAlign=middle;whiteSpace=wrap;rounded=0;labelBackgroundColor=#FFFFFF;fontColor=#000000;" vertex="1" parent="WIyWlLk6GJQsqaUBKTNV-1">
          <mxGeometry x="840" y="310" width="270" height="30" as="geometry" />
        </mxCell>
        <mxCell id="hNCOztLgwrzikOfnoWvJ-22" value="" style="endArrow=open;endFill=1;endSize=12;html=1;rounded=0;fontColor=#000000;exitX=0.461;exitY=1.065;exitDx=0;exitDy=0;exitPerimeter=0;entryX=0.5;entryY=0;entryDx=0;entryDy=0;" edge="1" parent="WIyWlLk6GJQsqaUBKTNV-1" source="hNCOztLgwrzikOfnoWvJ-3" target="hNCOztLgwrzikOfnoWvJ-4">
          <mxGeometry width="160" relative="1" as="geometry">
            <mxPoint x="370" y="350" as="sourcePoint" />
            <mxPoint x="530" y="350" as="targetPoint" />
          </mxGeometry>
        </mxCell>
        <mxCell id="hNCOztLgwrzikOfnoWvJ-23" value="" style="endArrow=open;endFill=1;endSize=12;html=1;rounded=0;fontColor=#000000;entryX=1.008;entryY=0.792;entryDx=0;entryDy=0;entryPerimeter=0;exitX=0.002;exitY=0.591;exitDx=0;exitDy=0;exitPerimeter=0;" edge="1" parent="WIyWlLk6GJQsqaUBKTNV-1" source="hNCOztLgwrzikOfnoWvJ-13" target="hNCOztLgwrzikOfnoWvJ-5">
          <mxGeometry width="160" relative="1" as="geometry">
            <mxPoint x="370" y="350" as="sourcePoint" />
            <mxPoint x="530" y="350" as="targetPoint" />
          </mxGeometry>
        </mxCell>
        <mxCell id="hNCOztLgwrzikOfnoWvJ-24" value="TRTCRoom在&lt;span style=&quot;background-color: rgb(248, 249, 250);&quot;&gt;RegisterPusher时：&amp;nbsp; &amp;nbsp; &amp;nbsp; &amp;nbsp; &amp;nbsp; &amp;nbsp; &amp;nbsp; &amp;nbsp; &amp;nbsp; &amp;nbsp; &amp;nbsp; &amp;nbsp; &amp;nbsp;&lt;br&gt;1、调用&lt;/span&gt;&lt;span style=&quot;background-color: rgb(248, 249, 250);&quot;&gt;pipeline_=&lt;/span&gt;&lt;span style=&quot;text-align: center; background-color: rgb(248, 249, 250);&quot;&gt;TRTCRoomPipeline::Create()&lt;br&gt;&lt;/span&gt;&lt;span style=&quot;background-color: rgb(248, 249, 250);&quot;&gt;2、在Create()中创建trtc::Pipeline&lt;br&gt;&lt;/span&gt;" style="text;html=1;strokeColor=none;fillColor=none;align=left;verticalAlign=middle;whiteSpace=wrap;rounded=0;labelBackgroundColor=#FFFFFF;fontColor=#000000;" vertex="1" parent="WIyWlLk6GJQsqaUBKTNV-1">
          <mxGeometry x="360" y="390" width="270" height="60" as="geometry" />
        </mxCell>
      </root>
    </mxGraphModel>
  </diagram>
</mxfile>
